<mxfile host="65bd71144e">
    <diagram name="Data Flow Sketch" id="data-flow-sketch">
        <mxGraphModel dx="1457" dy="960" grid="1" gridSize="10" guides="1" tooltips="1" connect="1" arrows="1" fold="1" page="1" pageScale="1" pageWidth="827" pageHeight="1169" math="0" shadow="0">
            <root>
                <mxCell id="0"/>
                <mxCell id="1" parent="0"/>
                <mxCell id="14" value="" style="rounded=0;whiteSpace=wrap;html=1;" vertex="1" parent="1">
                    <mxGeometry x="50" y="70" width="890" height="150" as="geometry"/>
                </mxCell>
                <mxCell id="2" value="Controller:&#xa;SÃ¶derstad University Hospital (Sweden, EU)" style="rounded=1;whiteSpace=wrap;html=1;fillColor=#dae8fc;strokeColor=#6c8ebf;" parent="1" vertex="1">
                    <mxGeometry x="60" y="120" width="220" height="60" as="geometry"/>
                </mxCell>
                <mxCell id="3" value="Processor:&#xa;MedAI Cloud GmbH (Frankfurt, EU)" style="rounded=1;whiteSpace=wrap;html=1;fillColor=#d5e8d4;strokeColor=#82b366;" parent="1" vertex="1">
                    <mxGeometry x="340" y="120" width="220" height="60" as="geometry"/>
                </mxCell>
                <mxCell id="4" value="Sub-processor (support, break-glass):&#xa;MedAI Inc. (USA)" style="rounded=1;whiteSpace=wrap;html=1;fillColor=#fff2cc;strokeColor=#d6b656;" parent="1" vertex="1">
                    <mxGeometry x="620" y="120" width="220" height="60" as="geometry"/>
                </mxCell>
                <mxCell id="5" style="edgeStyle=orthogonalEdgeStyle;rounded=0;orthogonalLoop=1;jettySize=auto;html=1;endArrow=block;endFill=1;strokeColor=#6c8ebf;" parent="1" source="2" target="3" edge="1">
                    <mxGeometry relative="1" as="geometry">
                        <mxPoint x="170" y="150" as="offset"/>
                    </mxGeometry>
                </mxCell>
                <mxCell id="6" value="DICOM images + metadata" style="text;html=1;strokeColor=none;fillColor=none;" parent="1" vertex="1">
                    <mxGeometry x="240" y="80" width="120" height="20" as="geometry"/>
                </mxCell>
                <mxCell id="7" style="edgeStyle=orthogonalEdgeStyle;rounded=0;orthogonalLoop=1;jettySize=auto;html=1;endArrow=block;endFill=1;dashed=1;strokeColor=#82b366;" parent="1" source="3" target="3" edge="1">
                    <mxGeometry relative="1" as="geometry">
                        <mxPoint x="450" y="190" as="offset"/>
                    </mxGeometry>
                </mxCell>
                <mxCell id="8" value="Routine training/inference (EU)" style="text;html=1;strokeColor=none;fillColor=none;" parent="1" vertex="1">
                    <mxGeometry x="360" y="190" width="180" height="20" as="geometry"/>
                </mxCell>
                <mxCell id="9" style="edgeStyle=orthogonalEdgeStyle;rounded=0;orthogonalLoop=1;jettySize=auto;html=1;endArrow=block;endFill=1;strokeColor=#d6b656;" parent="1" source="3" target="4" edge="1">
                    <mxGeometry relative="1" as="geometry">
                        <mxPoint x="530" y="150" as="offset"/>
                    </mxGeometry>
                </mxCell>
                <mxCell id="10" value="Break-glass support (temporary, read-only, audited, explicit approval, limited scope/time)" style="text;html=1;strokeColor=none;fillColor=none;" parent="1" vertex="1">
                    <mxGeometry x="440" y="80" width="350" height="40" as="geometry"/>
                </mxCell>
                <mxCell id="11" value="No routine storage in USA. Access is only transient." style="text;html=1;strokeColor=none;fillColor=none;" parent="1" vertex="1">
                    <mxGeometry x="630" y="190" width="200" height="30" as="geometry"/>
                </mxCell>
            </root>
        </mxGraphModel>
    </diagram>
</mxfile>